<?xml version="1.0" encoding="iso-8859-1"?>
<!-- Generator: Adobe Illustrator 19.0.0, SVG Export Plug-In . SVG Version: 6.00 Build 0)  -->
<svg version="1.1" id="Layer_1" xmlns="http://www.w3.org/2000/svg" xmlns:xlink="http://www.w3.org/1999/xlink" x="0px" y="0px"
	 viewBox="0 0 512 512" style="enable-background:new 0 0 512 512;" xml:space="preserve">
<g>
	<g>
		<path d="M502.691,268.591c-5.141,0-9.309,4.168-9.309,9.309v196.864H18.618V278.109c0-5.141-4.168-9.309-9.309-9.309
			C4.168,268.8,0,272.968,0,278.109v205.009c0,5.141,5.332,10.264,10.473,10.264h493.382c5.141,0,8.145-5.123,8.145-10.264V277.9
			C512,272.759,507.832,268.591,502.691,268.591z"/>
	</g>
</g>
<g>
	<g>
		<path d="M485.264,102.4h-456.2C13.677,102.4,0,113.777,0,129.191v65.077c0,24.955,19.464,49.395,43.568,55.641L223.177,296.4
			c10.509,2.727,24.068,4.082,37.55,4.082c14.127,0,28.404-1.486,39.409-4.45l169.546-45.791
			C493.718,243.768,512,219.182,512,194.268v-65.077C512,113.777,500.65,102.4,485.264,102.4z M493.382,194.268
			c0,16.35-12.737,33.75-28.5,37.991L295.077,278.05c-18.209,4.9-48.855,5.059-67.082,0.332L48.168,231.886
			c-15.741-4.077-29.55-21.305-29.55-37.618v-65.077c0-5.15,5.327-8.173,10.445-8.173h456.2c5.118,0,8.118,3.023,8.118,8.173
			V194.268z"/>
	</g>
</g>
<g>
	<g>
		<path d="M336.341,18.618H177.986c-15.373,0-29.041,11.355-29.041,26.745v37.255c0,5.141,4.168,9.309,9.309,9.309
			c5.141,0,9.309-4.168,9.309-9.309V45.364c0-5.123,5.318-8.127,10.423-8.127h158.355c5.104,0,8.095,3.005,8.095,8.127v37.255
			c0,5.141,4.168,9.309,9.309,9.309c5.141,0,9.309-4.168,9.309-9.309V45.364C363.055,29.973,351.714,18.618,336.341,18.618z"/>
	</g>
</g>
<g>
	<g>
		<path d="M308.364,325.818h-93.091c-5.141,0-9.309,4.168-9.309,9.309c0,5.141,4.168,9.309,9.309,9.309h93.091
			c5.141,0,9.309-4.168,9.309-9.309C317.673,329.986,313.505,325.818,308.364,325.818z"/>
	</g>
</g>
<g>
</g>
<g>
</g>
<g>
</g>
<g>
</g>
<g>
</g>
<g>
</g>
<g>
</g>
<g>
</g>
<g>
</g>
<g>
</g>
<g>
</g>
<g>
</g>
<g>
</g>
<g>
</g>
<g>
</g>
</svg>
